<svg xmlns="http://www.w3.org/2000/svg"
	 version="1.1"
	 xmlns:xlink="http://www.w3.org/1999/xlink"
	 xmlns:svgjs="http://svgjs.com/svgjs"
	 height="47.5"
	 width="215">
	<defs id="SvgjsDefs1271"></defs>
	<g id="SvgjsG1272"
	   rel="mainfill"
	   name="main_text"
	   xmlns:name="main_text"
	   transform="translate(65, -132) scale(0.7)"
	   fill="#000000">
		<path d="M11.26 231.64L6.97 231.64L8.42 227.23C8.81 226.02 8.93 225.54 9.12 224.33C9.30 225.54 9.42 226.02 9.81 227.23ZM5.80 235.17L12.44 235.17L13.61 238.79C14.04 240.06 14.88 240.21 15.88 240.21C16.87 240.21 18.11 240.03 17.69 238.79L11.44 220.08C11.08 218.99 10.11 218.57 9.12 218.57C8.12 218.57 7.15 218.99 6.79 220.08L0.54 238.79C0.12 240.03 1.36 240.21 2.35 240.21C3.35 240.21 4.20 240.06 4.62 238.79ZM24.21 220.14C24.21 219.05 23.18 218.75 22.19 218.75C21.19 218.75 20.19 219.05 20.19 220.14L20.19 238.85C20.19 239.97 21.19 240.27 22.19 240.27C23.18 240.27 24.21 239.97 24.21 238.85ZM34.50 233.78C35.44 233.78 35.68 232.94 35.68 232.12C35.68 231.28 35.41 230.43 34.50 230.43L28.37 230.43C27.47 230.43 27.23 231.28 27.23 232.12C27.23 232.94 27.47 233.78 28.37 233.78ZM44.37 223.94C39.54 223.94 37.79 227.29 37.79 232.12C37.79 236.95 39.66 240.33 44.37 240.33C45.70 240.33 47.12 239.85 48.03 238.94C48.21 240.06 49.11 240.27 49.99 240.27C51.01 240.27 51.83 239.91 51.83 238.76L51.83 220.11C51.83 218.96 50.83 218.66 49.81 218.66C48.81 218.66 47.78 218.96 47.78 220.11L47.78 225.09C46.73 224.27 45.52 223.94 44.37 223.94ZM44.83 237.19C42.35 237.19 42.02 234.39 42.02 232.12C42.02 229.89 42.35 227.08 44.83 227.08C47.06 227.08 47.78 229.92 47.78 231.61L47.78 232.94C47.78 234.69 46.85 237.19 44.83 237.19ZM62.03 227.08C63.42 227.08 64.42 227.96 64.54 229.56C64.57 230.04 64.29 230.22 63.99 230.22L59.04 230.22C59.25 228.32 60.28 227.08 62.03 227.08ZM67.92 236.44C68.13 235.83 68.01 234.96 66.68 234.81C65.53 234.69 64.78 234.93 64.48 235.50C63.93 236.53 63.33 237.10 62.06 237.10C59.59 237.13 58.98 235.02 58.92 233.03L65.59 233.03C67.43 233.03 68.31 232.45 68.34 230.43C68.37 226.60 65.99 223.97 61.85 223.97C56.75 223.97 54.85 227.84 54.85 232.09C54.88 236.50 56.96 240.39 61.97 240.42C64.87 240.42 67.13 239.00 67.92 236.44ZM74.29 225.48C73.95 224.30 72.72 224.03 71.72 224.03C70.72 224.03 69.61 224.33 69.97 225.48L74.26 238.82C74.62 239.97 75.86 240.27 76.85 240.27C77.82 240.27 79.06 239.97 79.42 238.82L83.70 225.48C84.07 224.33 82.95 224.03 81.95 224.03C80.99 224.03 79.75 224.30 79.42 225.48L77.49 232.21C77.21 233.15 77.09 234.23 76.85 235.17C76.61 234.23 76.46 233.15 76.19 232.21ZM92.49 227.08C93.88 227.08 94.87 227.96 94.99 229.56C95.02 230.04 94.75 230.22 94.45 230.22L89.50 230.22C89.71 228.32 90.74 227.08 92.49 227.08ZM98.37 236.44C98.59 235.83 98.46 234.96 97.14 234.81C95.99 234.69 95.24 234.93 94.93 235.50C94.39 236.53 93.79 237.10 92.52 237.10C90.04 237.13 89.44 235.02 89.38 233.03L96.05 233.03C97.89 233.03 98.77 232.45 98.80 230.43C98.83 226.60 96.44 223.97 92.31 223.97C87.21 223.97 85.30 227.84 85.30 232.09C85.33 236.50 87.42 240.39 92.43 240.42C95.33 240.42 97.59 239.00 98.37 236.44ZM105.89 220.14C105.89 218.96 104.89 218.66 103.87 218.66C102.87 218.66 101.85 218.99 101.85 220.14L101.85 238.82C101.85 239.97 102.87 240.27 103.87 240.27C104.89 240.27 105.89 239.97 105.89 238.82ZM108.91 232.18C108.91 236.95 110.72 240.30 115.82 240.30C120.92 240.30 122.73 236.95 122.73 232.18C122.73 227.41 120.92 224.06 115.82 224.06C110.72 224.06 108.91 227.41 108.91 232.18ZM118.84 232.18C118.84 234.42 118.48 237.19 115.82 237.19C113.20 237.19 112.83 234.42 112.83 232.18C112.83 229.95 113.13 227.17 115.82 227.17C118.54 227.17 118.84 229.95 118.84 232.18ZM129.56 225.33C129.37 224.24 128.47 224.00 127.59 224.00C126.57 224.00 125.75 224.39 125.75 225.54L125.75 244.17C125.75 245.31 126.78 245.61 127.77 245.61C128.80 245.61 129.80 245.31 129.80 244.17L129.80 239.18C130.64 240 131.91 240.36 133.18 240.36C137.83 240.36 139.82 236.98 139.82 232.15C139.82 227.32 138.04 223.97 133.18 223.97C131.79 223.97 130.34 224.51 129.56 225.33ZM129.80 232.70L129.80 231.34C129.80 229.44 130.76 227.11 132.79 227.11C135.26 227.11 135.56 229.89 135.56 232.15C135.56 234.42 135.26 237.22 132.79 237.22C130.61 237.22 129.80 234.63 129.80 232.70ZM151.11 223.85C149.78 223.85 147.97 224.18 146.61 225.87L146.55 225.51C146.40 224.33 145.71 224.03 144.62 224.03C143.68 224.03 142.84 224.42 142.84 225.48L142.84 238.82C142.84 239.97 143.83 240.27 144.86 240.27C145.86 240.27 146.88 239.97 146.88 238.82L146.88 231.70C146.88 229.62 147.61 227.47 149.90 227.47C151.50 227.47 151.74 229.16 151.74 230.34L151.74 238.82C151.74 239.97 152.89 240.27 153.79 240.27C154.79 240.27 155.82 239.97 155.82 238.82L155.82 231.61C155.82 229.65 156.51 227.47 158.96 227.47C160.56 227.47 160.71 228.98 160.71 230.13L160.71 238.82C160.71 239.97 161.73 240.27 162.73 240.27C163.76 240.27 164.75 239.97 164.75 238.82L164.75 229.37C164.75 225.66 163.27 223.85 160.04 223.85C158.75 223.85 156.99 224.18 155.36 226.21C154.40 224.55 152.89 223.85 151.11 223.85ZM174.65 227.08C176.04 227.08 177.04 227.96 177.16 229.56C177.19 230.04 176.92 230.22 176.61 230.22L171.66 230.22C171.88 228.32 172.90 227.08 174.65 227.08ZM180.54 236.44C180.75 235.83 180.63 234.96 179.30 234.81C178.15 234.69 177.40 234.93 177.10 235.50C176.55 236.53 175.95 237.10 174.68 237.10C172.21 237.13 171.60 235.02 171.54 233.03L178.21 233.03C180.06 233.03 180.93 232.45 180.96 230.43C180.99 226.60 178.61 223.97 174.47 223.97C169.37 223.97 167.47 227.84 167.47 232.09C167.50 236.50 169.58 240.39 174.59 240.42C177.49 240.42 179.75 239.00 180.54 236.44ZM187.75 225.51C187.60 224.33 186.91 224.06 185.79 224.06C184.89 224.06 184.01 224.42 184.01 225.48L184.01 238.82C184.01 239.97 185.04 240.27 186.03 240.27C187.06 240.27 188.06 239.97 188.06 238.82L188.06 231.67C188.06 229.56 188.84 227.47 191.38 227.47C192.98 227.47 193.34 228.98 193.34 230.13L193.34 238.82C193.34 239.97 194.36 240.27 195.36 240.27C196.39 240.27 197.38 239.97 197.38 238.82L197.38 229.25C197.38 225.54 195.51 223.85 192.28 223.85C190.98 223.85 189.17 224.18 187.81 225.87ZM201.91 221.68L201.91 224.36L200.94 224.36C199.80 224.36 199.50 225.18 199.50 225.99C199.50 226.81 199.80 227.62 200.94 227.62L201.91 227.62L201.91 234.87C201.91 238.10 203.15 240.27 207.13 240.27C207.86 240.27 208.67 240.18 209.25 239.94C209.97 239.61 210.15 239.00 210.15 238.25C210.15 237.04 209.76 236.38 208.43 236.53C206.59 236.74 205.96 236.02 205.96 234.63L205.96 227.62L207.65 227.62C208.79 227.62 209.09 226.81 209.09 225.99C209.09 225.18 208.79 224.36 207.65 224.36L205.96 224.36L205.96 221.68C205.96 220.53 204.96 220.23 203.93 220.23C202.94 220.23 201.91 220.53 201.91 221.68Z"
			  fill="#000000" style="fill: #6800A0;">
		</path>
	</g>
	<g id="SvgjsG1273" rel="mainfill" name="symbol"
	   xmlns:name="symbol_mainfill"
	   transform="translate(-1,-3) scale(0.6)"
	   fill="#1D181F">
		<path d="M84.3,15.1H52.4h0H15.8c-4.7,0-8.5,3.8-8.5,8.5v35v1.9v6.3c0,1.1-0.4,2.2-1.1,3l-4.4,5.4c-0.3,0.4-0.5,0.9-0.5,1.4v2.5  c0,3.2,2.6,5.8,5.8,5.8h85.9c3.2,0,5.8-2.6,5.8-5.8v-2.5c0-0.5-0.2-1-0.5-1.4l-4.3-5.3c-0.7-0.9-1.1-1.9-1.1-3v-5v-3.2v-9.3h0V23.6  C92.8,18.9,89,15.1,84.3,15.1z M59.3,76.5c0,1.6-1.3,2.9-2.9,2.9H43.7c-1.6,0-2.9-1.3-2.9-2.9v-0.6h18.5V76.5z M84.3,61.8v5.5H15.8  v-6.5v-2.3v-35c0,0,0,0,0,0h40.5h28c0,0,0,0,0,0v35v2.3v0.6h0V61.8z M50,27.5c-4.7,0-9.2,1.8-12.6,5.2c-3.4,3.4-5.2,7.8-5.2,12.6  c0,4.7,1.8,9.2,5.2,12.6c3.4,3.4,7.8,5.2,12.6,5.2c4.7,0,9.2-1.8,12.6-5.2c3.4-3.4,5.2-7.8,5.2-12.6c0-4.7-1.8-9.2-5.2-12.6  C59.2,29.4,54.7,27.5,50,27.5z M62.2,38.1h-4.4c-0.5-2-1.2-3.9-2.1-5.7C58.5,33.5,60.7,35.5,62.2,38.1z M49.1,31.1  c0.7,0,1.4,0,2.1,0c1.4,2.2,2.4,4.5,3.1,6.9h-8.4C46.5,35.6,47.6,33.3,49.1,31.1z M36.2,49c-0.3-1.2-0.5-2.5-0.5-3.7  c0-1.3,0.2-2.5,0.5-3.7h5.2c-0.2,1.3-0.3,2.6-0.3,3.9c0,1.2,0.1,2.4,0.2,3.5H36.2z M37.7,52.6H42c0.5,2,1.2,3.9,2,5.7  C41.4,57.1,39.2,55.1,37.7,52.6z M42.1,38.1h-4.4c1.5-2.6,3.8-4.6,6.6-5.8C43.4,34.1,42.7,36.1,42.1,38.1z M50.9,59.5  c-0.7,0-1.4,0-2.1,0c-1.4-2.2-2.4-4.5-3.1-6.9h8.4C53.4,55,52.3,57.4,50.9,59.5z M54.9,49H45c-0.2-1.2-0.2-2.4-0.2-3.5  c0-1.3,0.1-2.6,0.3-3.9h9.9c0.2,1.2,0.2,2.4,0.2,3.6C55.2,46.4,55.1,47.8,54.9,49z M55.6,58.4c0.9-1.9,1.7-3.8,2.2-5.9h4.5  C60.7,55.2,58.4,57.2,55.6,58.4z M64.2,45.3c0,1.3-0.2,2.5-0.5,3.7h-5.3c0.2-1.3,0.3-2.6,0.3-3.9c0-1.2-0.1-2.4-0.2-3.6h5.2  C64.1,42.8,64.2,44.1,64.2,45.3z"
			  fill="#1D181F" style="fill: #6800A0;"></path>
	</g>
</svg>